<?xml version="1.0" encoding="UTF-8"?>
<!-- Generator: Adobe Illustrator 24.0.0, SVG Export Plug-In . SVG Version: 6.00 Build 0)  -->
<svg version="1.1" id="Layer_1" xmlns="http://www.w3.org/2000/svg" xmlns:xlink="http://www.w3.org/1999/xlink" x="0px" y="0px" viewBox="0 0 85 71" style="enable-background:new 0 0 85 71;" xml:space="preserve">
<style type="text/css">
	.st0{fill:none;stroke:#446512;stroke-width:1.2;stroke-linecap:round;stroke-linejoin:round;}
</style>
<path class="st0" d="M17.8,12.9c-1.3,1.7-2.4,3.4-3.4,5.2c-9.8,18.4-0.8,41.8,21.2,46.7"/>
<path class="st0" d="M67.2,12.9c1.3,1.7,2.4,3.4,3.4,5.2c9.8,18.4,0.8,41.8-21.2,46.8"/>
<path class="st0" d="M17.6,13.2c-4.9-1-6.9-8.1-1-12.2C20.5,5.5,20.5,9.4,17.6,13.2z"/>
<path class="st0" d="M11.9,23.8c-4.9,0.8-9.4-5.1-5.5-11C11.7,15.4,13.1,19.2,11.9,23.8z"/>
<path class="st0" d="M10.4,35.6C6,38.1-0.3,34.2,1.2,27.3C7.2,27.9,9.9,30.9,10.4,35.6z"/>
<path class="st0" d="M13.3,47.2C10.1,51,2.8,49.6,1.7,42.6C7.5,41.1,11.1,43,13.3,47.2z"/>
<path class="st0" d="M20.2,57.1c-1.6,4.7-8.9,5.9-12.5-0.2C12.6,53.4,16.6,53.9,20.2,57.1z"/>
<path class="st0" d="M30.2,63.8c0.3,4.9-6.2,8.7-11.8,4.2C21.8,63.1,25.8,62.1,30.2,63.8z"/>
<path class="st0" d="M67.3,13.2c4.9-1,7-8.1,1.1-12.2C64.5,5.5,64.5,9.4,67.3,13.2z"/>
<path class="st0" d="M73.1,23.8c4.9,0.8,9.4-5.1,5.5-11C73.3,15.5,71.8,19.2,73.1,23.8z"/>
<path class="st0" d="M74.6,35.6c4.3,2.5,10.7-1.4,9.2-8.4C77.8,27.9,75.1,30.9,74.6,35.6z"/>
<path class="st0" d="M71.7,47.2c3.1,3.8,10.5,2.4,11.6-4.6C77.5,41.2,73.9,43,71.7,47.2z"/>
<path class="st0" d="M64.8,57c1.5,4.7,8.9,5.9,12.5-0.2C72.4,53.4,68.4,53.9,64.8,57z"/>
<path class="st0" d="M54.8,63.8c-0.3,5,6.1,8.7,11.7,4.2C63.2,63.1,59.3,62.1,54.8,63.8z"/>
<path class="st0" d="M49.3,18.2H30.2v4.4h19.1V18.2z"/>
<path class="st0" d="M32.7,31.4h-2.6v2.5h2.6V31.4z"/>
<path class="st0" d="M38.2,31.4h-2.6v2.5h2.6V31.4z"/>
<path class="st0" d="M43.8,31.4h-2.6v2.5h2.6V31.4z"/>
<path class="st0" d="M49.3,31.4h-2.6v2.5h2.6V31.4z"/>
<path class="st0" d="M32.7,25.9h-2.6v2.5h2.6V25.9z"/>
<path class="st0" d="M38.2,25.9h-2.6v2.5h2.6V25.9z"/>
<path class="st0" d="M43.8,25.9h-2.6v2.5h2.6V25.9z"/>
<path class="st0" d="M49.3,25.9h-2.6v2.5h2.6V25.9z"/>
<path class="st0" d="M32.7,36.8h-2.6v2.5h2.6V36.8z"/>
<path class="st0" d="M38.2,36.8h-2.6v2.5h2.6V36.8z"/>
<path class="st0" d="M43.8,36.8h-2.6v2.5h2.6V36.8z"/>
<path class="st0" d="M43.8,42.3h-2.6v2.5h2.6V42.3z"/>
<path class="st0" d="M38.2,42.3h-8.1v2.5h8.1V42.3z"/>
<path class="st0" d="M52.4,34.3V15H27.2v33.1h18.1"/>
<path class="st0" d="M52.5,51.7c4.8,0,8.7-3.8,8.7-8.6s-3.9-8.6-8.7-8.6c-4.8,0-8.7,3.8-8.7,8.6S47.7,51.7,52.5,51.7z"/>
<path class="st0" d="M49.1,38.8h7.1"/>
<path class="st0" d="M49.1,41.3h7.1"/>
<path class="st0" d="M53.3,39c0,0,1.1,5.5-4.2,5.5L54,49"/>
</svg>