<svg width="85" height="71" viewBox="0 0 85 71" fill="none" xmlns="http://www.w3.org/2000/svg">
<path d="M17.8028 12.9326C16.55 14.6102 15.4019 16.361 14.365 18.1754C4.52534 36.6194 13.5988 59.9693 35.5465 64.9247" stroke="#413272" stroke-width="1.2" stroke-linecap="round" stroke-linejoin="round"/>
<path d="M67.1421 12.9028C68.3974 14.5767 69.5423 16.3279 70.5698 18.1456C80.3994 36.5897 71.3764 59.9197 49.3984 64.9147" stroke="#413272" stroke-width="1.2" stroke-linecap="round" stroke-linejoin="round"/>
<path d="M17.6324 13.2498C12.7529 12.219 10.7063 5.14272 16.6242 1C20.5359 5.45986 20.4855 9.42418 17.6324 13.2498Z" stroke="#413272" stroke-width="1.2" stroke-linecap="round" stroke-linejoin="round"/>
<path d="M11.8958 23.775C6.95581 24.5382 2.45941 18.6611 6.43156 12.7245C11.7345 15.45 13.1459 19.2062 11.8958 23.775Z" stroke="#413272" stroke-width="1.2" stroke-linecap="round" stroke-linejoin="round"/>
<path d="M10.3633 35.6383C6.0282 38.0962 -0.313138 34.2012 1.23943 27.2637C7.1775 27.9277 9.85921 30.9307 10.3633 35.6383Z" stroke="#413272" stroke-width="1.2" stroke-linecap="round" stroke-linejoin="round"/>
<path d="M13.2576 47.2538C10.1021 51.0496 2.76264 49.6522 1.67383 42.6254C7.47076 41.1388 11.0699 43.0318 13.2576 47.2538Z" stroke="#413272" stroke-width="1.2" stroke-linecap="round" stroke-linejoin="round"/>
<path d="M20.1926 57.0753C18.64 61.7532 11.2704 63.0218 7.69141 56.8374C12.5911 53.438 16.6237 53.9038 20.1926 57.0753Z" stroke="#413272" stroke-width="1.2" stroke-linecap="round" stroke-linejoin="round"/>
<path d="M30.2434 63.8047C30.4955 68.7105 24.0836 72.4866 18.4883 67.9871C21.8051 63.0911 25.747 62.1 30.2434 63.8047Z" stroke="#413272" stroke-width="1.2" stroke-linecap="round" stroke-linejoin="round"/>
<path d="M67.3151 13.2499C72.2047 12.2588 74.2816 5.17255 68.414 1.01001C64.452 5.45996 64.4923 9.42428 67.3151 13.2499Z" stroke="#413272" stroke-width="1.2" stroke-linecap="round" stroke-linejoin="round"/>
<path d="M73.0804 23.775C78.0204 24.5579 82.5268 18.6907 78.5748 12.7443C73.2518 15.4598 71.8303 19.1962 73.0804 23.775Z" stroke="#413272" stroke-width="1.2" stroke-linecap="round" stroke-linejoin="round"/>
<path d="M74.6035 35.6383C78.9285 38.1061 85.2799 34.2012 83.7576 27.2637C77.8095 27.9277 75.0975 30.9208 74.6035 35.6383Z" stroke="#413272" stroke-width="1.2" stroke-linecap="round" stroke-linejoin="round"/>
<path d="M71.7207 47.2438C74.8561 51.0694 82.2056 49.6818 83.3146 42.6551C77.5176 41.1883 73.9185 43.0317 71.7207 47.2438Z" stroke="#413272" stroke-width="1.2" stroke-linecap="round" stroke-linejoin="round"/>
<path d="M64.7832 57.0654C66.3257 61.7433 73.6853 63.0119 77.2844 56.8672C72.415 53.4579 68.3823 53.9039 64.7832 57.0654Z" stroke="#413272" stroke-width="1.2" stroke-linecap="round" stroke-linejoin="round"/>
<path d="M54.7428 63.7948C54.4706 68.7502 60.8724 72.5064 66.4778 68.0169C63.1811 63.111 59.2492 62.11 54.7428 63.7948Z" stroke="#413272" stroke-width="1.2" stroke-linecap="round" stroke-linejoin="round"/>
<path d="M27.8342 17.7394H57.0709C57.5522 17.7394 58.0138 17.9273 58.3541 18.2619C58.6944 18.5964 58.8856 19.0502 58.8856 19.5233V38.9683H26.0195V19.5134C26.0222 19.042 26.2146 18.5908 26.5546 18.2584C26.8946 17.926 27.3547 17.7394 27.8342 17.7394V17.7394Z" stroke="#413272" stroke-width="1.2" stroke-linecap="round" stroke-linejoin="round"/>
<path d="M58.7358 38.7899L62.2643 45.7077H22.6738L26.2024 38.7899" stroke="#413272" stroke-width="1.2" stroke-linecap="round" stroke-linejoin="round"/>
<path d="M43.401 34.2012C43.4958 34.2026 43.59 34.1853 43.678 34.1506C43.766 34.1158 43.8461 34.0642 43.9137 33.9987C43.9812 33.9332 44.0348 33.8552 44.0714 33.7692C44.108 33.6831 44.1269 33.5908 44.1269 33.4976V31.8028C44.1269 30.5045 45.7097 30.009 45.7097 27.9178C45.6634 27.1009 45.3007 26.3324 44.696 25.7702C44.0913 25.2079 43.2906 24.8947 42.4583 24.8947C41.6261 24.8947 40.8254 25.2079 40.2207 25.7702C39.616 26.3324 39.2533 27.1009 39.207 27.9178C39.207 30.009 40.7898 30.5045 40.7898 31.8028V33.5273C40.7898 33.7139 40.8653 33.8929 40.9995 34.0249C41.1337 34.1568 41.3158 34.231 41.5056 34.231L43.401 34.2012Z" stroke="#413272" stroke-width="1.2" stroke-linecap="round" stroke-linejoin="round"/>
<path d="M40.7891 32.5659H44.0555" stroke="#413272" stroke-width="1.2" stroke-linecap="round" stroke-linejoin="round"/>
<path d="M42.4531 23.2101V22.4668" stroke="#413272" stroke-width="1.2" stroke-linecap="round" stroke-linejoin="round"/>
<path d="M47.3633 28.1754H48.1194" stroke="#413272" stroke-width="1.2" stroke-linecap="round" stroke-linejoin="round"/>
<path d="M36.8184 28.1754H37.5745" stroke="#413272" stroke-width="1.2" stroke-linecap="round" stroke-linejoin="round"/>
<path d="M38.7941 24.9445L38.2598 24.4192" stroke="#413272" stroke-width="1.2" stroke-linecap="round" stroke-linejoin="round"/>
<path d="M46.1523 24.9445L46.6867 24.4192" stroke="#413272" stroke-width="1.2" stroke-linecap="round" stroke-linejoin="round"/>
<path d="M62.3047 45.777V48.1655H22.6738V45.777" stroke="#413272" stroke-width="1.2" stroke-linecap="round" stroke-linejoin="round"/>
<path d="M56.6987 19.8405H28.2383V36.8672H56.6987V19.8405Z" stroke="#413272" stroke-width="1.2" stroke-linecap="round" stroke-linejoin="round"/>
</svg>