<svg width="85" height="71" viewBox="0 0 85 71" fill="none" xmlns="http://www.w3.org/2000/svg">
<path d="M17.8028 12.9326C16.55 14.6102 15.4019 16.361 14.365 18.1754C4.52534 36.6194 13.5988 59.9693 35.5465 64.9247" stroke="#822936" stroke-width="1.2" stroke-linecap="round" stroke-linejoin="round"/>
<path d="M67.1421 12.9029C68.3974 14.5767 69.5423 16.3279 70.5698 18.1457C80.3994 36.5897 71.3764 59.9197 49.3984 64.9148" stroke="#822936" stroke-width="1.2" stroke-linecap="round" stroke-linejoin="round"/>
<path d="M17.6324 13.2498C12.7529 12.219 10.7063 5.14272 16.6242 1C20.5359 5.45986 20.4855 9.42418 17.6324 13.2498Z" stroke="#822936" stroke-width="1.2" stroke-linecap="round" stroke-linejoin="round"/>
<path d="M11.8958 23.775C6.95581 24.5382 2.45941 18.6611 6.43156 12.7245C11.7345 15.45 13.1459 19.2062 11.8958 23.775Z" stroke="#822936" stroke-width="1.2" stroke-linecap="round" stroke-linejoin="round"/>
<path d="M10.3633 35.6383C6.0282 38.0961 -0.313138 34.2012 1.23943 27.2636C7.1775 27.9277 9.85921 30.9306 10.3633 35.6383Z" stroke="#822936" stroke-width="1.2" stroke-linecap="round" stroke-linejoin="round"/>
<path d="M13.2576 47.2537C10.1021 51.0495 2.76264 49.6521 1.67383 42.6254C7.47076 41.1387 11.0699 43.0317 13.2576 47.2537Z" stroke="#822936" stroke-width="1.2" stroke-linecap="round" stroke-linejoin="round"/>
<path d="M20.1926 57.0753C18.64 61.7532 11.2704 63.0218 7.69141 56.8375C12.5911 53.4381 16.6237 53.9039 20.1926 57.0753Z" stroke="#822936" stroke-width="1.2" stroke-linecap="round" stroke-linejoin="round"/>
<path d="M30.2434 63.8048C30.4955 68.7106 24.0836 72.4866 18.4883 67.9871C21.8051 63.0912 25.747 62.1001 30.2434 63.8048Z" stroke="#822936" stroke-width="1.2" stroke-linecap="round" stroke-linejoin="round"/>
<path d="M67.3151 13.2499C72.2047 12.2588 74.2816 5.17255 68.414 1.01001C64.452 5.45996 64.4923 9.42428 67.3151 13.2499Z" stroke="#822936" stroke-width="1.2" stroke-linecap="round" stroke-linejoin="round"/>
<path d="M73.0804 23.775C78.0204 24.558 82.5268 18.6908 78.5748 12.7443C73.2518 15.4599 71.8303 19.1963 73.0804 23.775Z" stroke="#822936" stroke-width="1.2" stroke-linecap="round" stroke-linejoin="round"/>
<path d="M74.6035 35.6382C78.9285 38.106 85.2799 34.2012 83.7576 27.2636C77.8095 27.9276 75.0975 30.9207 74.6035 35.6382Z" stroke="#822936" stroke-width="1.2" stroke-linecap="round" stroke-linejoin="round"/>
<path d="M71.7207 47.2438C74.8561 51.0694 82.2056 49.6818 83.3146 42.6551C77.5176 41.1883 73.9185 43.0317 71.7207 47.2438Z" stroke="#822936" stroke-width="1.2" stroke-linecap="round" stroke-linejoin="round"/>
<path d="M64.7832 57.0654C66.3257 61.7433 73.6853 63.0119 77.2844 56.8672C72.415 53.4579 68.3823 53.9039 64.7832 57.0654Z" stroke="#822936" stroke-width="1.2" stroke-linecap="round" stroke-linejoin="round"/>
<path d="M54.7428 63.7948C54.4706 68.7502 60.8724 72.5064 66.4778 68.0169C63.1811 63.111 59.2492 62.11 54.7428 63.7948Z" stroke="#822936" stroke-width="1.2" stroke-linecap="round" stroke-linejoin="round"/>
<path d="M56.0224 25.8365L60.9826 30.0089V50.6135H23.9629V30.0089L28.8626 25.9059" stroke="#822936" stroke-width="1.2" stroke-linecap="round" stroke-linejoin="round"/>
<path d="M34.5391 21.1685L42.5338 14.4886L50.2865 21.0099" stroke="#822936" stroke-width="1.2" stroke-linecap="round" stroke-linejoin="round"/>
<path d="M23.9629 50.6135L42.5131 38.3538L60.9826 50.6135" stroke="#822936" stroke-width="1.2" stroke-linecap="round" stroke-linejoin="round"/>
<path d="M23.9629 30.0089L39.4281 40.1774" stroke="#822936" stroke-width="1.2" stroke-linecap="round" stroke-linejoin="round"/>
<path d="M60.8513 30.0089L45.4062 40.3062" stroke="#822936" stroke-width="1.2" stroke-linecap="round" stroke-linejoin="round"/>
<path d="M28.9336 33.1011V21.1388H56.0027V33.1011" stroke="#822936" stroke-width="1.2" stroke-linecap="round" stroke-linejoin="round"/>
<path d="M37.3613 30.0981L40.6782 33.3588L47.8462 26.5699" stroke="#822936" stroke-width="1.2" stroke-linecap="round" stroke-linejoin="round"/>
</svg>