<svg width="85" height="71" viewBox="0 0 85 71" fill="none" xmlns="http://www.w3.org/2000/svg">
<path d="M17.8028 12.9326C16.55 14.6102 15.4019 16.361 14.365 18.1754C4.52534 36.6194 13.5988 59.9693 35.5465 64.9247" stroke="#176B9D" stroke-width="1.2" stroke-linecap="round" stroke-linejoin="round"/>
<path d="M67.1421 12.9028C68.3974 14.5767 69.5423 16.3279 70.5698 18.1456C80.3994 36.5897 71.3764 59.9197 49.3984 64.9147" stroke="#176B9D" stroke-width="1.2" stroke-linecap="round" stroke-linejoin="round"/>
<path d="M17.6324 13.2498C12.7529 12.219 10.7063 5.14272 16.6242 1C20.5359 5.45986 20.4855 9.42418 17.6324 13.2498Z" stroke="#176B9D" stroke-width="1.2" stroke-linecap="round" stroke-linejoin="round"/>
<path d="M11.8958 23.775C6.95581 24.5382 2.45941 18.6611 6.43156 12.7245C11.7345 15.45 13.1459 19.2062 11.8958 23.775Z" stroke="#176B9D" stroke-width="1.2" stroke-linecap="round" stroke-linejoin="round"/>
<path d="M10.3633 35.6383C6.0282 38.0962 -0.313138 34.2012 1.23943 27.2637C7.1775 27.9277 9.85921 30.9307 10.3633 35.6383Z" stroke="#176B9D" stroke-width="1.2" stroke-linecap="round" stroke-linejoin="round"/>
<path d="M13.2576 47.2536C10.1021 51.0495 2.76264 49.6521 1.67383 42.6253C7.47076 41.1387 11.0699 43.0316 13.2576 47.2536Z" stroke="#176B9D" stroke-width="1.2" stroke-linecap="round" stroke-linejoin="round"/>
<path d="M20.1926 57.0754C18.64 61.7533 11.2704 63.0219 7.69141 56.8375C12.5911 53.4381 16.6237 53.9039 20.1926 57.0754Z" stroke="#176B9D" stroke-width="1.2" stroke-linecap="round" stroke-linejoin="round"/>
<path d="M30.2434 63.8046C30.4955 68.7104 24.0836 72.4864 18.4883 67.9869C21.8051 63.091 25.747 62.0999 30.2434 63.8046Z" stroke="#176B9D" stroke-width="1.2" stroke-linecap="round" stroke-linejoin="round"/>
<path d="M67.3151 13.2499C72.2047 12.2588 74.2816 5.17255 68.414 1.01001C64.452 5.45996 64.4923 9.42428 67.3151 13.2499Z" stroke="#176B9D" stroke-width="1.2" stroke-linecap="round" stroke-linejoin="round"/>
<path d="M73.0804 23.775C78.0204 24.5579 82.5268 18.6907 78.5748 12.7443C73.2518 15.4598 71.8303 19.1962 73.0804 23.775Z" stroke="#176B9D" stroke-width="1.2" stroke-linecap="round" stroke-linejoin="round"/>
<path d="M74.6035 35.6383C78.9285 38.1061 85.2799 34.2012 83.7576 27.2637C77.8095 27.9277 75.0975 30.9208 74.6035 35.6383Z" stroke="#176B9D" stroke-width="1.2" stroke-linecap="round" stroke-linejoin="round"/>
<path d="M71.7207 47.2437C74.8561 51.0692 82.2056 49.6817 83.3146 42.655C77.5176 41.1882 73.9185 43.0316 71.7207 47.2437Z" stroke="#176B9D" stroke-width="1.2" stroke-linecap="round" stroke-linejoin="round"/>
<path d="M64.7832 57.0654C66.3257 61.7433 73.6853 63.0119 77.2844 56.8672C72.415 53.4579 68.3823 53.9039 64.7832 57.0654Z" stroke="#176B9D" stroke-width="1.2" stroke-linecap="round" stroke-linejoin="round"/>
<path d="M54.7428 63.7947C54.4706 68.7501 60.8724 72.5063 66.4778 68.0167C63.1811 63.1109 59.2492 62.1099 54.7428 63.7947Z" stroke="#176B9D" stroke-width="1.2" stroke-linecap="round" stroke-linejoin="round"/>
<path d="M53.0684 19.4937C53.0684 32.1101 48.3099 42.2885 42.4323 42.2885C36.5548 42.2885 31.8164 32.1398 31.8164 19.4937" stroke="#176B9D" stroke-width="1.2" stroke-linecap="round" stroke-linejoin="round"/>
<path d="M31.817 19.5135C31.5985 19.5083 31.3832 19.4609 31.1834 19.3739C30.9836 19.287 30.8032 19.1621 30.6524 19.0066C30.5017 18.8511 30.3836 18.6678 30.3049 18.4674C30.2262 18.267 30.1885 18.0533 30.1939 17.8385C30.1939 17.6243 30.237 17.4121 30.3207 17.2142C30.4044 17.0164 30.5271 16.8368 30.6817 16.6857C30.8363 16.5346 31.0197 16.4151 31.2215 16.334C31.4233 16.2529 31.6394 16.2119 31.8573 16.2132H52.8472C53.0647 16.2118 53.2803 16.253 53.4816 16.3342C53.6828 16.4154 53.8656 16.5351 54.0193 16.6863C54.1731 16.8375 54.2949 17.0172 54.3775 17.215C54.4601 17.4128 54.502 17.6247 54.5006 17.8385C54.5259 18.0412 54.5081 18.2468 54.4485 18.4423C54.3888 18.6379 54.2885 18.8191 54.154 18.9747C54.0195 19.1302 53.8536 19.2566 53.6669 19.346C53.4801 19.4353 53.2766 19.4856 53.069 19.4936" stroke="#176B9D" stroke-width="1.2" stroke-linecap="round" stroke-linejoin="round"/>
<path d="M44.7917 42.021C44.8522 43.5175 44.9833 46.5998 47.171 48.3144C48.4555 49.1085 49.9138 49.5909 51.4254 49.7217C51.8932 49.7818 52.3228 50.0068 52.6344 50.3551C52.9459 50.7033 53.1182 51.1509 53.1191 51.6147V52.5364H31.7461V51.6147C31.747 51.1509 31.9193 50.7033 32.2308 50.3551C32.5424 50.0068 32.972 49.7818 33.4398 49.7217C34.9514 49.5909 36.4097 49.1085 37.6942 48.3144C39.882 46.5998 40.013 43.5175 40.0735 42.021" stroke="#176B9D" stroke-width="1.2" stroke-linecap="round" stroke-linejoin="round"/>
<path d="M31.6245 21.5254H24.4767C23.902 24.5482 24.7388 37.9377 36.2621 38.2647" stroke="#176B9D" stroke-width="1.2" stroke-linecap="round" stroke-linejoin="round"/>
<path d="M31.8376 24.1814H27.4017C27.3513 26.3717 27.7949 33.5075 34.8218 35.5887" stroke="#176B9D" stroke-width="1.2" stroke-linecap="round" stroke-linejoin="round"/>
<path d="M53.3111 21.5254H60.4589C61.0336 24.5482 60.1968 37.9377 48.6836 38.2647" stroke="#176B9D" stroke-width="1.2" stroke-linecap="round" stroke-linejoin="round"/>
<path d="M53.0991 24.1814H57.535C57.5955 26.3717 57.1418 33.5075 50.125 35.5887" stroke="#176B9D" stroke-width="1.2" stroke-linecap="round" stroke-linejoin="round"/>
<path d="M42.4227 23.3389L44.0761 26.6193L47.7559 27.1446L45.0943 29.7016L45.7194 33.2992L42.4227 31.6045L39.1361 33.2992L39.7612 29.7016L37.0996 27.1446L40.7794 26.6193L42.4227 23.3389Z" stroke="#176B9D" stroke-width="1.2" stroke-linecap="round" stroke-linejoin="round"/>
</svg>